<svg xmlns="http://www.w3.org/2000/svg" width="31.163" height="31.163" viewBox="0 0 31.163 31.163">
  <g id="Group_9446" data-name="Group 9446" transform="translate(1 1)">
    <path id="Path_83231" data-name="Path 83231" d="M2,17.981v2.975c0,7.291,2.916,10.207,10.207,10.207h8.749c7.291,0,10.207-2.916,10.207-10.207V12.207C31.163,4.916,28.247,2,20.956,2H12.207C4.916,2,2,4.916,2,12.207" transform="translate(-2 -2)" fill="none" stroke="#6b6666" stroke-linecap="round" stroke-linejoin="round" stroke-width="2"/>
    <path id="Path_83232" data-name="Path 83232" d="M7.33,15.561l2.892-3.755a1.22,1.22,0,0,1,1.713-.219l2.224,1.75a1.229,1.229,0,0,0,1.713-.207L18.679,9.51" transform="translate(1.577 2.046)" fill="none" stroke="#6b6666" stroke-linecap="round" stroke-linejoin="round" stroke-width="2"/>
  </g>
</svg>
