<svg xmlns="http://www.w3.org/2000/svg" width="24.712" height="24.712" viewBox="0 0 24.712 24.712">
  <g id="bathtub" transform="translate(-2 -2)">
    <path id="Path_85511" data-name="Path 85511" d="M7.471,9.942A2.471,2.471,0,1,0,5,7.471,2.471,2.471,0,0,0,7.471,9.942Z" transform="translate(0.707 0.707)" fill="#4bac1d"/>
    <path id="Path_85512" data-name="Path 85512" d="M24.241,15.592V5.5a3.495,3.495,0,0,0-5.968-2.471L16.728,4.57a2.1,2.1,0,0,0-.63-.1,2.454,2.454,0,0,0-1.334.4l3.41,3.41a2.454,2.454,0,0,0,.4-1.334,2.672,2.672,0,0,0-.086-.63l1.544-1.544A1.023,1.023,0,0,1,21.77,5.5V15.592H13.306a6.3,6.3,0,0,1-1.013-.89l-1.73-1.915a2.651,2.651,0,0,0-.853-.618,2.781,2.781,0,0,0-4,2.5v.927H2v7.414a2.478,2.478,0,0,0,2.471,2.471,1.239,1.239,0,0,0,1.236,1.236h17.3a1.239,1.239,0,0,0,1.236-1.236,2.478,2.478,0,0,0,2.471-2.471V15.592Z" fill="#4bac1d"/>
  </g>
</svg>
