<svg xmlns="http://www.w3.org/2000/svg" width="26.334" height="26.841" viewBox="0 0 26.334 26.841">
  <g id="coffee5" transform="translate(-3.333 -2.495)">
    <path id="Path_85523" data-name="Path 85523" d="M8,6.828a1.007,1.007,0,0,1-1-1V3.495a1,1,0,0,1,2,0V5.828A1,1,0,0,1,8,6.828Zm5.333,0a1.008,1.008,0,0,1-1-1V3.495a1,1,0,1,1,2,0V5.828A1,1,0,0,1,13.333,6.828Zm5.334,0a1.007,1.007,0,0,1-1-1V3.495a1,1,0,0,1,2,0V5.828A1,1,0,0,1,18.667,6.828Zm11,10.84a6.661,6.661,0,0,0-6.12-6.612,5.6,5.6,0,0,0-4.774-2.707H8.947a5.622,5.622,0,0,0-5.614,5.613v.707H24.387v-.707a4.566,4.566,0,0,0-.08-.746,4.629,4.629,0,0,1,.08,8.88V16H3.333v7.72a5.622,5.622,0,0,0,5.614,5.614h9.826a5.592,5.592,0,0,0,5.56-5.147,6.664,6.664,0,0,0,5.334-6.52Z" fill="#4bac1d"/>
  </g>
</svg>
