<svg xmlns="http://www.w3.org/2000/svg" width="29.062" height="29.062" viewBox="0 0 29.062 29.062">
  <path id="Icon_awesome-recycle" data-name="Icon awesome-recycle" d="M10.476,14.866a.909.909,0,0,1-1.366.974L6.8,14.4,3.91,19.016A1.82,1.82,0,0,0,5.45,21.8H8.4a.681.681,0,0,1,.681.681v2.27a.681.681,0,0,1-.681.681H5.456A5.452,5.452,0,0,1,.835,17.092l2.885-4.62L1.408,11.028a.909.909,0,0,1,.277-1.655L7.942,7.928a.908.908,0,0,1,1.089.681l1.445,6.257ZM16.07,4.483l2.344,3.751L16.1,9.679a.909.909,0,0,0,.277,1.655l6.257,1.445a.908.908,0,0,0,1.089-.681l1.445-6.257A.909.909,0,0,0,23.8,4.866L21.494,6.309,19.152,2.559a5.452,5.452,0,0,0-9.242,0L8.89,4.191a.681.681,0,0,0,.217.938l1.925,1.2a.681.681,0,0,0,.939-.217l1.019-1.631A1.818,1.818,0,0,1,16.07,4.483ZM28.226,17.092l-1.562-2.5a.681.681,0,0,0-.939-.217l-1.922,1.2a.681.681,0,0,0-.217.939l1.565,2.5a1.819,1.819,0,0,1-1.54,2.779H18.163V19.073a.909.909,0,0,0-1.55-.642l-4.541,4.54a.908.908,0,0,0,0,1.284l4.541,4.54a.909.909,0,0,0,1.55-.642V25.429h5.442A5.452,5.452,0,0,0,28.226,17.092Z" fill="#4bac1d"/>
</svg>
