<svg xmlns="http://www.w3.org/2000/svg" width="34.286" height="24" viewBox="0 0 34.286 24">
  <path id="Icon_awesome-car-side" data-name="Icon awesome-car-side" d="M29.143,10.821h-.857L22.458,3.537A3.43,3.43,0,0,0,19.781,2.25H8.321A3.428,3.428,0,0,0,5.138,4.405L2.571,10.943A3.421,3.421,0,0,0,0,14.25v6a.857.857,0,0,0,.857.857H3.429a5.143,5.143,0,1,0,10.286,0h6.857a5.143,5.143,0,1,0,10.286,0h2.571a.857.857,0,0,0,.857-.857V15.964A5.143,5.143,0,0,0,29.143,10.821ZM8.571,23.679a2.571,2.571,0,1,1,2.571-2.571A2.574,2.574,0,0,1,8.571,23.679Zm3.857-12.857H6.264L8.321,5.679h4.107Zm2.571,0V5.679h4.781L23.9,10.821ZM25.714,23.679a2.571,2.571,0,1,1,2.571-2.571A2.574,2.574,0,0,1,25.714,23.679Z" transform="translate(0 -2.25)" fill="#4bac1d"/>
</svg>
