<svg xmlns="http://www.w3.org/2000/svg" width="36.93" height="25.849" viewBox="0 0 36.93 25.849">
  <path id="Icon_awesome-coffee" data-name="Icon awesome-coffee" d="M11.077,22.56H22.155a5.54,5.54,0,0,0,5.539-5.539H29.54a7.385,7.385,0,1,0,0-14.771H6.923A1.381,1.381,0,0,0,5.538,3.635V17.021A5.54,5.54,0,0,0,11.077,22.56ZM29.54,5.943a3.693,3.693,0,0,1,0,7.385H27.694V5.943ZM32.293,28.1H2.786C.04,28.1-.733,24.406.709,24.406H34.364c1.442,0,.681,3.693-2.071,3.693Z" transform="translate(0.004 -2.25)" fill="#4bac1d"/>
</svg>
