<svg xmlns="http://www.w3.org/2000/svg" width="37.043" height="20.579" viewBox="0 0 37.043 20.579">
  <path id="Icon_awesome-fish" data-name="Icon awesome-fish" d="M21.036,6.75c-5.786,0-10.839,3.522-13.651,6.536L1.769,9.038a1.07,1.07,0,0,0-1.745.943L1.578,17.04.023,24.1a1.07,1.07,0,0,0,1.745.943l5.616-4.248c2.812,3.013,7.866,6.535,13.652,6.535,8.84,0,16.007-8.232,16.007-10.29S29.876,6.75,21.036,6.75Zm5.623,11.833A1.543,1.543,0,1,1,28.2,17.04,1.544,1.544,0,0,1,26.659,18.583Z" transform="translate(0 -6.75)" fill="#4bac1d"/>
</svg>
