<svg xmlns="http://www.w3.org/2000/svg" width="30.367" height="30.368" viewBox="0 0 30.367 30.368">
  <path id="Icon_awesome-sun" data-name="Icon awesome-sun" d="M15.184,9.49a5.694,5.694,0,1,0,5.694,5.694A5.7,5.7,0,0,0,15.184,9.49ZM29.8,14.265l-5.617-2.806L26.169,5.5a1.026,1.026,0,0,0-1.3-1.3L18.915,6.192,16.1.569a1.027,1.027,0,0,0-1.839,0L11.459,6.186,5.5,4.2A1.026,1.026,0,0,0,4.2,5.5l1.987,5.955L.569,14.265a1.027,1.027,0,0,0,0,1.839l5.617,2.806L4.2,24.87a1.026,1.026,0,0,0,1.3,1.3l5.955-1.987L14.259,29.8a1.027,1.027,0,0,0,1.839,0L18.9,24.182l5.955,1.987a1.026,1.026,0,0,0,1.3-1.3L24.17,18.915l5.617-2.806a1.028,1.028,0,0,0,.012-1.845Zm-9.247,6.287a7.591,7.591,0,1,1,0-10.736A7.6,7.6,0,0,1,20.552,20.552Z" fill="#4bac1d"/>
</svg>
