<svg id="kitchen-towel-paper-tissue-svgrepo-com" xmlns="http://www.w3.org/2000/svg" width="28.004" height="26" viewBox="0 0 28.004 26">
  <path id="Path_85539" data-name="Path 85539" d="M11,13c5.1,0,9-2.1,9-5s-3.9-5-9-5S2,5.1,2,8,5.9,13,11,13ZM10,7h2a.945.945,0,0,1,1,1,.945.945,0,0,1-1,1H10A.945.945,0,0,1,9,8,.945.945,0,0,1,10,7Z" transform="translate(-2 -3)" fill="#4bac1d"/>
  <path id="Path_85540" data-name="Path 85540" d="M29.7,11.3,28.4,10l1.3-1.3a.967.967,0,0,0,0-1.4L28.4,6l1.3-1.3a.913.913,0,0,0,.2-1.1A.875.875,0,0,0,29,3H18.9A6.183,6.183,0,0,1,22,7.7h0V24a3.4,3.4,0,0,1-.1,1H29a.875.875,0,0,0,.9-.6.913.913,0,0,0-.2-1.1L28.4,22l1.3-1.3a.967.967,0,0,0,0-1.4L28.4,18l1.3-1.3a.967.967,0,0,0,0-1.4L28.4,14l1.3-1.3A.967.967,0,0,0,29.7,11.3Z" transform="translate(-2 -3)" fill="#4bac1d"/>
  <path id="Path_85541" data-name="Path 85541" d="M11,15c-3.9,0-7.1-1.1-9-2.8V24c0,2.9,3.9,5,9,5s9-2.1,9-5V12.2C18.1,13.9,14.9,15,11,15ZM8,25a.945.945,0,0,1-1,1,.945.945,0,0,1-1-1V23a.945.945,0,0,1,1-1,.945.945,0,0,1,1,1Zm0-6a.945.945,0,0,1-1,1,.945.945,0,0,1-1-1V17a.945.945,0,0,1,1-1,.945.945,0,0,1,1,1Z" transform="translate(-2 -3)" fill="#4bac1d"/>
</svg>
