<svg width="343" height="343" viewBox="0 0 343 343" fill="none" xmlns="http://www.w3.org/2000/svg">
<path d="M229.276 202.113C217.608 213.073 135.584 295.804 135.584 295.804C178.045 303.63 201.162 302.117 240.236 280.955C240.236 280.955 270.288 262.924 273.116 242.418C275.945 221.912 271.349 210.952 261.803 202.113C252.257 193.274 240.943 191.153 229.276 202.113Z" fill="#E43E45"/>
<path d="M113.564 140.797C125.232 129.836 207.256 47.105 207.256 47.105C164.795 39.2792 141.678 40.7924 102.604 61.9543C102.604 61.9543 72.5521 79.9855 69.7237 100.492C66.8952 120.998 71.4914 131.958 81.0374 140.797C90.5833 149.636 101.897 151.757 113.564 140.797Z" fill="#E43E45"/>
<path d="M140.762 229.31C129.802 217.643 47.0703 135.619 47.0703 135.619C39.2444 178.08 40.7577 201.197 61.9195 240.271C61.9195 240.271 79.9508 270.323 100.457 273.151C120.963 275.979 131.923 271.383 140.762 261.837C149.601 252.291 151.722 240.978 140.762 229.31Z" fill="#E43E45"/>
<path d="M202.078 113.599C213.038 125.266 295.77 207.291 295.77 207.291C303.595 164.829 302.082 141.712 280.92 102.639C280.92 102.639 262.889 72.5868 242.383 69.7584C221.877 66.9299 210.917 71.5261 202.078 81.0721C193.239 90.618 191.118 101.932 202.078 113.599Z" fill="#E43E45"/>
</svg>
