<svg xmlns="http://www.w3.org/2000/svg" width="33.667" height="33.202" viewBox="0 0 33.667 33.202">
  <g id="meat-svgrepo-com" transform="translate(0 -3.431)">
    <g id="Group_10412" data-name="Group 10412" transform="translate(0 3.431)">
      <g id="Group_10411" data-name="Group 10411" transform="translate(0 0)">
        <path id="Path_85536" data-name="Path 85536" d="M0,434.669l3,3.978H30.671l3-3.978Z" transform="translate(0 -405.445)" fill="#4bac1d"/>
        <path id="Path_85537" data-name="Path 85537" d="M76.361,123.888a14.192,14.192,0,0,0-3.314-12.639c1.918-3.531,1.159-7.224-1.1-8.2-2.236-1.044-5.659,1.118-6.811,4.7-5.6-.081-13.757,4.9-13.513,16.135Z" transform="translate(-48.123 -96.054)" fill="#4bac1d"/>
        <path id="Path_85538" data-name="Path 85538" d="M344.453,6.924c.108.054.217.108.319.163L343.7,8.848a3.337,3.337,0,0,1,2.589,1.525l1.044-1.762a1.3,1.3,0,0,0,.291.217,1.868,1.868,0,1,0,1.918-3.205,2.011,2.011,0,0,0-2.189.108h0a1.83,1.83,0,0,0-.989-2.033,1.867,1.867,0,0,0-2.562.644A1.925,1.925,0,0,0,344.453,6.924Z" transform="translate(-320.273 -3.431)" fill="#4bac1d"/>
      </g>
    </g>
  </g>
</svg>
