<svg id="phone_iphone" xmlns="http://www.w3.org/2000/svg" width="17.096" height="28.932" viewBox="0 0 17.096 28.932">
  <path id="Path_85520" data-name="Path 85520" d="M7,4H18.836V22.411H7Z" transform="translate(-4.37 -0.055)" fill="#4bac1d" opacity="0.3"/>
  <path id="Path_85521" data-name="Path 85521" d="M18.808,1H8.288A3.288,3.288,0,0,0,5,4.288V26.644a3.288,3.288,0,0,0,3.288,3.288H18.808A3.288,3.288,0,0,0,22.1,26.644V4.288A3.288,3.288,0,0,0,18.808,1Zm-5.26,27.617a1.973,1.973,0,1,1,1.973-1.973A1.97,1.97,0,0,1,13.548,28.617Zm5.918-5.26H7.63V4.945H19.466Z" transform="translate(-5 -1)" fill="#4bac1d"/>
</svg>
