<svg xmlns="http://www.w3.org/2000/svg" width="31.163" height="31.163" viewBox="0 0 31.163 31.163">
  <g id="profile-circle" transform="translate(1 1)">
    <g id="Group_9447" data-name="Group 9447">
      <path id="Path_83233" data-name="Path 83233" d="M17.883,8.9a4.82,4.82,0,0,1-4.142,6.986,1.42,1.42,0,0,0-.354,0,4.829,4.829,0,0,1,.177-9.654" transform="translate(1.031 -0.095)" fill="none" stroke="#6b6666" stroke-linecap="round" stroke-linejoin="round" stroke-width="2"/>
      <path id="Path_83234" data-name="Path 83234" d="M24.813,21.25a14.306,14.306,0,0,1-19.553,0,5.426,5.426,0,0,1,2.567-3.8,13.922,13.922,0,0,1,14.418,0,5.426,5.426,0,0,1,2.567,3.8Z" transform="translate(-0.455 4.052)" fill="none" stroke="#6b6666" stroke-linecap="round" stroke-linejoin="round" stroke-width="2"/>
      <path id="Path_83235" data-name="Path 83235" d="M4.916,7.833A14.581,14.581,0,1,0,16.581,2a14.385,14.385,0,0,0-5.876,1.239" transform="translate(-2 -2)" fill="none" stroke="#6b6666" stroke-linecap="round" stroke-linejoin="round" stroke-width="2"/>
    </g>
  </g>
</svg>
