<svg xmlns="http://www.w3.org/2000/svg" width="30.328" height="34.115" viewBox="0 0 30.328 34.115">
  <g id="savings" transform="translate(-4.441 -1)">
    <path id="Path_85524" data-name="Path 85524" d="M26.153,1a7.153,7.153,0,1,0,7.153,7.153A7.153,7.153,0,0,0,26.153,1Zm3.14,7.542-2.751,2.751a.55.55,0,0,1-.778,0L23.013,8.542a.55.55,0,0,1,0-.778l2.751-2.751a.55.55,0,0,1,.778,0l2.751,2.751A.55.55,0,0,1,29.293,8.542Z" transform="translate(-6.548)" fill="#4bac1d"/>
    <path id="Path_85525" data-name="Path 85525" d="M19.367,49l.9,7.221a.55.55,0,0,0,.546.482h11a.55.55,0,0,0,.546-.482L33.27,49Z" transform="translate(-6.713 -21.588)" fill="#4bac1d"/>
    <path id="Path_85526" data-name="Path 85526" d="M34.583,31.316a9.336,9.336,0,0,0-14.428,2.623V28.95c-.183.012-.364.028-.55.028s-.368-.016-.55-.028v4.989A9.336,9.336,0,0,0,4.628,31.316a.55.55,0,0,0,0,.825,9.317,9.317,0,0,0,11.967.317,8.227,8.227,0,0,1,2.432,5.323H13a.55.55,0,0,0-.546.618l.06.482H26.694l.06-.482a.55.55,0,0,0-.546-.618H20.184a8.227,8.227,0,0,1,2.432-5.323,9.317,9.317,0,0,0,11.967-.317.55.55,0,0,0,0-.825Z" transform="translate(0 -12.571)" fill="#4bac1d"/>
  </g>
</svg>
