<svg xmlns="http://www.w3.org/2000/svg" width="24.296" height="25.422" viewBox="0 0 24.296 25.422">
  <g id="shopping-cart" transform="translate(-1.25 -1.25)">
    <path id="Path_85514" data-name="Path 85514" d="M16.594,23.187A2.094,2.094,0,1,0,14.5,21.094a2.094,2.094,0,0,0,2.094,2.094Z" transform="translate(2.601 3.485)" fill="#4bac1d"/>
    <path id="Path_85515" data-name="Path 85515" d="M8.594,23.187A2.094,2.094,0,1,0,6.5,21.094,2.094,2.094,0,0,0,8.594,23.187Z" transform="translate(1.031 3.485)" fill="#4bac1d"/>
    <path id="Path_85516" data-name="Path 85516" d="M5.545,4.468,5.306,7.4a.949.949,0,0,0,.957,1.029H24.578a.955.955,0,0,0,.957-.885A3.538,3.538,0,0,0,21.959,3.7H7.256a3.262,3.262,0,0,0-.73-1.448,3.181,3.181,0,0,0-2.3-1H2.147a.9.9,0,1,0,0,1.794H4.229A1.313,1.313,0,0,1,5.545,4.468Z" transform="translate(0)" fill="#4bac1d"/>
    <path id="Path_85517" data-name="Path 85517" d="M23.752,8.75H5.4a.962.962,0,0,0-.957.873l-.431,5.2A3.5,3.5,0,0,0,7.493,18.62H20.8A3.586,3.586,0,0,0,24.3,15.354L24.7,9.767a.936.936,0,0,0-.945-1.017Z" transform="translate(0.54 1.472)" fill="#4bac1d"/>
  </g>
</svg>
