<svg id="video-vertical5" xmlns="http://www.w3.org/2000/svg" width="26.666" height="26.666" viewBox="0 0 26.666 26.666">
  <path id="Path_85522" data-name="Path 85522" d="M8.48,10.375H2.667V15H8.48Zm0-1.99V2.84A6.618,6.618,0,0,0,2.865,8.373H8.438c.013,0,.027.013.04.013Zm0,13.362V17H2.667v4.707H8.32A.67.67,0,0,1,8.48,21.747ZM29.133,8.373a6.575,6.575,0,0,0-5.32-5.467V8.373ZM21.813,15V2.68a1.256,1.256,0,0,0-.227-.013H10.479V15Zm7.52,2h-5.52v4.707h5.52Zm-5.52,12.1a6.577,6.577,0,0,0,5.306-5.387H23.813ZM8.32,23.709H2.88a6.638,6.638,0,0,0,5.6,5.453v-5.48a.669.669,0,0,1-.16.027ZM29.333,10.375h-5.52V15h5.52ZM10.479,17V29.333H21.586a1.256,1.256,0,0,0,.227-.013V17Z" transform="translate(-2.667 -2.667)" fill="#4bac1d"/>
</svg>
